# xmcd
#
# Track frame offsets:
#	150
#	21508
#	40141
#	60106
#	85273
#	105389
#	129585
#	150637
#	171194
#	192703
#	211143
#	231562
#	249392
#	271693
#	288154
#	305420
#
# Disc length: 4344
#
# Revision: 1
# Processed by: cddbd v1.5.1PL0 Copyright (c) Steve Scherf et al.
# Submitted via: FreeRIP 2.00 
# Normalized: r0:DSETVAR1,TDELIM( - )
#
DISCID=d610f610
DTITLE=Various Artist - Love n Blues Mix 1
DYEAR=2003
DGENRE=Blues
TTITLE0=Toni Braxton - You Mean The World To Me
TTITLE1=Gerald Levert - I'd Give Anything
TTITLE2=Phil Collins - True Colors
TTITLE3=El Debarge and Babyface - Where Is My Love
TTITLE4=Toni Braxton - Breathe Again
TTITLE5=Celine Dion - Call The Man
TTITLE6=Case - Missing You
TTITLE7=Boyz II Men - The Color Of Love
TTITLE8=Toni Braxton - Spanish Guitar
TTITLE9=Bebe Winans, B. McKnight and Joe - Coming Back Home
TTITLE10=Savage Garden - Truly Madly Deeply
TTITLE11=Gerald Levert - I Was Made To Love You
TTITLE12=Alicia Keys - A Woman's Worth
TTITLE13=K-CI and Jo Jo - All My Life
TTITLE14=Tracy Spencer - Still In My Heart
TTITLE15=UNV - So In Love With You
EXTD=This collection was compiled by Bernard Njenga\nhttp://www.bernardnjenga.com.
EXTT0=
EXTT1=
EXTT2=
EXTT3=
EXTT4=
EXTT5=
EXTT6=
EXTT7=
EXTT8=
EXTT9=
EXTT10=
EXTT11=
EXTT12=
EXTT13=
EXTT14=
EXTT15=
PLAYORDER=
